<svg width="64" height="64" viewBox="0 0 64 64" fill="none" xmlns="http://www.w3.org/2000/svg">
<g clip-path="url(#clip0)">
<path d="M21 53C32.598 53 42 43.598 42 32C42 20.402 32.598 11 21 11C9.40202 11 0 20.402 0 32C0 43.598 9.40202 53 21 53Z" fill="#363F40"/>
<path d="M29 54H27C27 51.79 28.79 50 31 50H42C43.1 50 44 49.1 44 48C44 46.9 43.1 46 42 46H32.82L21.82 42H13V40H22.18L33.18 44H42C44.21 44 46 45.79 46 48C46 50.21 44.21 52 42 52H31C29.9 52 29 52.9 29 54Z" fill="#FBED10"/>
<path d="M37.24 64H34.82L34.66 63.94L17.83 58H14V56H18.17L18.33 56.06L35.17 62H36.75L61.38 49.19C61.66 48.88 62 48.35 62 48C62 46.94 61.18 46.08 60.14 46L44.3 50.95L43.7 49.04L60 44C62.21 44 64 45.79 64 48C64 49.37 62.84 50.57 62.71 50.71L62.46 50.89L37.24 64Z" fill="#FBED10"/>
<path d="M10 54H8V56H10V54Z" fill="#FBED10"/>
<path d="M6 54H4V56H6V54Z" fill="#FBED10"/>
<path d="M12 60H0V58H12V40H0V38H12C13.1 38 14 38.9 14 40V58C14 59.1 13.1 60 12 60Z" fill="#FBED10"/>
<path d="M37 37C34.79 37 33 35.21 33 33H35C35 34.1 35.9 35 37 35C38.1 35 39 34.1 39 33C39 32.35 37.58 31.35 36.59 30.91C35.99 30.64 33 29.19 33 27C33 24.79 34.79 23 37 23C39.21 23 41 24.79 41 27H39C39 25.9 38.1 25 37 25C35.9 25 35 25.9 35 27C35 27.65 36.42 28.65 37.41 29.09C38.01 29.36 41 30.81 41 33C41 35.21 39.21 37 37 37Z" fill="#FBED10"/>
<path d="M38 21H36V24H38V21Z" fill="#FBED10"/>
<path d="M38 36H36V39H38V36Z" fill="#FBED10"/>
<path d="M45 29H43V31H45V29Z" fill="#FBED10"/>
<path d="M31 29H29V31H31V29Z" fill="#FBED10"/>
<path d="M41 12.0001H33C32.62 12.0001 32.28 11.7901 32.11 11.4501L28.11 3.45012C27.86 2.96012 28.06 2.36012 28.56 2.11012L32.56 0.110117C32.84 -0.0298828 33.17 -0.0298828 33.45 0.110117L37 1.88012L40.55 0.100117C40.83 -0.0398828 41.16 -0.0398828 41.44 0.100117L45.44 2.10012C45.93 2.35012 46.13 2.95012 45.89 3.44012L41.89 11.4401C41.72 11.7901 41.38 12.0001 41 12.0001ZM33.62 10.0001H40.38L43.66 3.45012L41 2.12012L37.45 3.90012C37.17 4.04012 36.84 4.04012 36.56 3.90012L33 2.12012L30.34 3.45012L33.62 10.0001Z" fill="#FBED10"/>
<path d="M56 44H54V36C54 19.39 43.75 16 41 16V14C44.17 14 56 17.73 56 36V44Z" fill="#FBED10"/>
<path d="M20 38H18V36C18 14.25 32.85 14 33 14V16C32.87 16 20 16.23 20 36V38Z" fill="#FBED10"/>
<path d="M41 16H33C31.35 16 30 14.65 30 13C30 11.35 31.35 10 33 10H41C42.65 10 44 11.35 44 13C44 14.65 42.65 16 41 16ZM33 12C32.45 12 32 12.45 32 13C32 13.55 32.45 14 33 14H41C41.55 14 42 13.55 42 13C42 12.45 41.55 12 41 12H33Z" fill="#FBED10"/>
</g>
<defs>
<clipPath id="clip0">
<rect width="64" height="64" fill="white"/>
</clipPath>
</defs>
</svg>
