<svg width="64" height="64" viewBox="0 0 64 64" fill="none" xmlns="http://www.w3.org/2000/svg">
<path d="M32 64C43.598 64 53 54.598 53 43C53 31.402 43.598 22 32 22C20.402 22 11 31.402 11 43C11 54.598 20.402 64 32 64Z" fill="#363F40"/>
<path d="M6 34C3.79 34 2 32.21 2 30C2 27.79 3.79 26 6 26C8.21 26 10 27.79 10 30C10 32.21 8.21 34 6 34ZM6 28C4.9 28 4 28.9 4 30C4 31.1 4.9 32 6 32C7.1 32 8 31.1 8 30C8 28.9 7.1 28 6 28Z" fill="#FBED10"/>
<path d="M15 58H11C9.35 58 8 56.65 8 55V39C8 37.35 9.35 36 11 36H15C16.65 36 18 37.35 18 39V55C18 56.65 16.65 58 15 58ZM11 38C10.45 38 10 38.45 10 39V55C10 55.55 10.45 56 11 56H15C15.55 56 16 55.55 16 55V39C16 38.45 15.55 38 15 38H11Z" fill="#FBED10"/>
<path d="M33 45H31V47H33V45Z" fill="#FBED10"/>
<path d="M29 45H27V47H29V45Z" fill="#FBED10"/>
<path d="M37 45H35V47H37V45Z" fill="#FBED10"/>
<path d="M36 64H30C28.35 64 27 62.65 27 61V60C27 58.35 28.35 57 30 57H36C37.65 57 39 58.35 39 60V61C39 62.65 37.65 64 36 64ZM30 59C29.45 59 29 59.45 29 60V61C29 61.55 29.45 62 30 62H36C36.55 62 37 61.55 37 61V60C37 59.45 36.55 59 36 59H30Z" fill="#FBED10"/>
<path d="M52 64H36V62H52C53.1 62 54 61.1 54 60V55H56V60C56 62.21 54.21 64 52 64Z" fill="#FBED10"/>
<path d="M9 56C4.04 56 0 51.96 0 47C0 42.04 4.04 38 9 38V40C5.14 40 2 43.14 2 47C2 50.86 5.14 54 9 54V56Z" fill="#FBED10"/>
<path d="M4 41.9999H2V35.9999C2 35.8899 2.02 35.7899 2.05 35.6799L3.05 32.6799L4.95 33.3099L4 36.1599V41.9999Z" fill="#FBED10"/>
<path d="M58 34C55.79 34 54 32.21 54 30C54 27.79 55.79 26 58 26C60.21 26 62 27.79 62 30C62 32.21 60.21 34 58 34ZM58 28C56.9 28 56 28.9 56 30C56 31.1 56.9 32 58 32C59.1 32 60 31.1 60 30C60 28.9 59.1 28 58 28Z" fill="#FBED10"/>
<path d="M53 58H49C47.35 58 46 56.65 46 55V39C46 37.35 47.35 36 49 36H53C54.65 36 56 37.35 56 39V55C56 56.65 54.65 58 53 58ZM49 38C48.45 38 48 38.45 48 39V55C48 55.55 48.45 56 49 56H53C53.55 56 54 55.55 54 55V39C54 38.45 53.55 38 53 38H49Z" fill="#FBED10"/>
<path d="M55 56V54C58.86 54 62 50.86 62 47C62 43.14 58.86 40 55 40V38C59.96 38 64 42.04 64 47C64 51.96 59.96 56 55 56Z" fill="#FBED10"/>
<path d="M62 41.9999H60V36.1599L59.05 33.3099L60.95 32.6799L61.95 35.6799C61.98 35.7899 62 35.8899 62 35.9999V41.9999Z" fill="#FBED10"/>
<path d="M59 27H57C57 13.21 45.79 2 32 2C18.21 2 7 13.21 7 27H5C5 12.11 17.11 0 32 0C46.89 0 59 12.11 59 27Z" fill="#FBED10"/>
<path d="M55 27H53C53 15.42 43.58 6 32 6C20.42 6 11 15.42 11 27H9C9 14.32 19.32 4 32 4C44.68 4 55 14.32 55 27Z" fill="#FBED10"/>
</svg>
