<svg width="60" height="64" viewBox="0 0 60 64" fill="none" xmlns="http://www.w3.org/2000/svg">
<path d="M39 53C50.598 53 60 43.598 60 32C60 20.402 50.598 11 39 11C27.402 11 18 20.402 18 32C18 43.598 27.402 53 39 53Z" fill="#363F40"/>
<path d="M42 61H35C32.24 61 30 58.76 30 56V8C30 5.24 32.24 3 35 3H42V5H35C33.35 5 32 6.35 32 8V56C32 57.65 33.35 59 35 59H42V61Z" fill="#FBED10"/>
<path d="M48 8C45.79 8 44 6.21 44 4C44 1.79 45.79 0 48 0C50.21 0 52 1.79 52 4C52 6.21 50.21 8 48 8ZM48 2C46.9 2 46 2.9 46 4C46 5.1 46.9 6 48 6C49.1 6 50 5.1 50 4C50 2.9 49.1 2 48 2Z" fill="#FBED10"/>
<path d="M48 46C45.79 46 44 44.21 44 42C44 39.79 45.79 38 48 38C50.21 38 52 39.79 52 42C52 44.21 50.21 46 48 46ZM48 40C46.9 40 46 40.9 46 42C46 43.1 46.9 44 48 44C49.1 44 50 43.1 50 42C50 40.9 49.1 40 48 40Z" fill="#FBED10"/>
<path d="M48 64C45.79 64 44 62.21 44 60C44 57.79 45.79 56 48 56C50.21 56 52 57.79 52 60C52 62.21 50.21 64 48 64ZM48 58C46.9 58 46 58.9 46 60C46 61.1 46.9 62 48 62C49.1 62 50 61.1 50 60C50 58.9 49.1 58 48 58Z" fill="#FBED10"/>
<path d="M42 41H26V43H42V41Z" fill="#FBED10"/>
<path d="M48 27C45.79 27 44 25.21 44 23C44 20.79 45.79 19 48 19C50.21 19 52 20.79 52 23C52 25.21 50.21 27 48 27ZM48 21C46.9 21 46 21.9 46 23C46 24.1 46.9 25 48 25C49.1 25 50 24.1 50 23C50 21.9 49.1 21 48 21Z" fill="#FBED10"/>
<path d="M42 22H26V24H42V22Z" fill="#FBED10"/>
<path d="M13 41H11V64H13V41Z" fill="#FBED10"/>
<path d="M12 12C8.69 12 6 9.31 6 6C6 2.69 8.69 0 12 0C15.31 0 18 2.69 18 6C18 9.31 15.31 12 12 12ZM12 2C9.79 2 8 3.79 8 6C8 8.21 9.79 10 12 10C14.21 10 16 8.21 16 6C16 3.79 14.21 2 12 2Z" fill="#FBED10"/>
<path d="M20 64H18V37H22V22C22 18.69 19.31 16 16 16H8C4.69 16 2 18.69 2 22V37H6V64H4V39H0V22C0 17.59 3.59 14 8 14H16C20.41 14 24 17.59 24 22V39H20V64Z" fill="#FBED10"/>
<path d="M13 18H11V20H13V18Z" fill="#FBED10"/>
<path d="M13 22H11V24H13V22Z" fill="#FBED10"/>
</svg>
