<svg width="64" height="60" viewBox="0 0 64 60" fill="none" xmlns="http://www.w3.org/2000/svg">
<path d="M43 42C54.598 42 64 32.598 64 21C64 9.40202 54.598 0 43 0C31.402 0 22 9.40202 22 21C22 32.598 31.402 42 43 42Z" fill="#363F40"/>
<path d="M60 20H58V14H52V12H60V20Z" fill="#FBED10"/>
<path d="M13.71 43.71L12.29 42.29L30 24.59L38 32.59L58.29 12.29L59.71 13.71L38 35.41L30 27.41L13.71 43.71Z" fill="#FBED10"/>
<path d="M59.41 60H4.59L0 55.41V52H25.41L27.41 54H36.58L38.58 52H64V55.41L59.41 60ZM5.41 58H58.58L62 54.59V54H39.41L37.41 56H26.59L24.59 54H2V54.59L5.41 58Z" fill="#FBED10"/>
<path d="M6 50H4V16C4 13.79 5.79 12 8 12H48V14H8C6.9 14 6 14.9 6 16V50Z" fill="#FBED10"/>
<path d="M60 24H58V50H60V24Z" fill="#FBED10"/>
<path d="M56 48H8V16H48V18H10V46H54V24H56V48Z" fill="#FBED10"/>
<path d="M25 38H23V44H25V38Z" fill="#FBED10"/>
<path d="M21 42H19V44H21V42Z" fill="#FBED10"/>
<path d="M29 34H27V44H29V34Z" fill="#FBED10"/>
<path d="M33 34H31V44H33V34Z" fill="#FBED10"/>
<path d="M37 38H35V44H37V38Z" fill="#FBED10"/>
<path d="M41 38H39V44H41V38Z" fill="#FBED10"/>
<path d="M45 34H43V44H45V34Z" fill="#FBED10"/>
<path d="M49 30H47V44H49V30Z" fill="#FBED10"/>
</svg>
