<svg width="50" height="32" viewBox="0 0 50 32" fill="none" xmlns="http://www.w3.org/2000/svg">
<path d="M47 0H3C1.34315 0 0 1.34315 0 3V29C0 30.6569 1.34315 32 3 32H47C48.6569 32 50 30.6569 50 29V3C50 1.34315 48.6569 0 47 0Z" fill="#00579F"/>
<path d="M22.467 21.535H19.388L21.314 10.5H24.392L22.467 21.535Z" fill="white"/>
<path d="M33.626 10.7701C33.018 10.5471 32.055 10.3 30.865 10.3C27.825 10.3 25.684 11.803 25.671 13.951C25.646 15.536 27.204 16.4161 28.369 16.9451C29.56 17.4851 29.965 17.837 29.965 18.319C29.952 19.058 29.002 19.399 28.116 19.399C26.887 19.399 26.228 19.223 25.228 18.812L24.822 18.635L24.392 21.1131C25.114 21.4181 26.444 21.688 27.825 21.7C31.055 21.7 33.157 20.221 33.182 17.931C33.195 16.675 32.372 15.712 30.598 14.926C29.522 14.421 28.862 14.08 28.862 13.564C28.875 13.094 29.42 12.6131 30.635 12.6131C31.636 12.5891 32.371 12.812 32.928 13.036L33.207 13.153L33.626 10.7701Z" fill="white"/>
<path d="M37.717 17.626C37.97 16.992 38.946 14.538 38.946 14.538C38.933 14.562 39.199 13.893 39.351 13.482L39.566 14.433C39.566 14.433 40.149 17.074 40.276 17.626C39.794 17.626 38.325 17.626 37.717 17.626ZM41.517 10.5H39.136C38.401 10.5 37.844 10.699 37.527 11.416L32.954 21.535H36.184C36.184 21.535 36.716 20.173 36.83 19.88C37.185 19.88 40.327 19.88 40.783 19.88C40.871 20.267 41.15 21.535 41.15 21.535H44L41.517 10.5Z" fill="white"/>
<path d="M16.817 10.5L13.803 18.025L13.473 16.499C12.916 14.738 11.168 12.825 9.21701 11.873L11.979 21.524H15.234L20.072 10.5H16.817Z" fill="white"/>
<path d="M11.003 10.5H6.05099L6 10.723C9.863 11.639 12.422 13.846 13.473 16.499L12.397 11.428C12.219 10.723 11.675 10.523 11.003 10.5Z" fill="#FAA61A"/>
</svg>
