<svg width="50" height="32" viewBox="0 0 50 32" fill="none" xmlns="http://www.w3.org/2000/svg">
<path d="M47 0H3C1.34315 0 0 1.34315 0 3V29C0 30.6569 1.34315 32 3 32H47C48.6569 32 50 30.6569 50 29V3C50 1.34315 48.6569 0 47 0Z" fill="#0F3560"/>
<path d="M29.363 23.8641H20.614V8.14111H29.363V23.8641Z" fill="#FF5F00"/>
<path d="M21.175 16.001C21.175 12.812 22.668 9.96998 24.994 8.13898C23.293 6.80098 21.147 6.00098 18.814 6.00098C13.292 6.00098 8.815 10.478 8.815 16.001C8.815 21.524 13.292 26.001 18.814 26.001C21.147 26.001 23.293 25.202 24.994 23.863C22.668 22.032 21.175 19.191 21.175 16.001Z" fill="#EB001B"/>
<path d="M41.163 16.001C41.163 21.524 36.687 26.001 31.164 26.001C28.832 26.001 26.685 25.202 24.984 23.863C27.31 22.032 28.804 19.191 28.804 16.001C28.804 12.812 27.31 9.96998 24.984 8.13898C26.685 6.80098 28.832 6.00098 31.164 6.00098C36.687 6.00098 41.163 10.478 41.163 16.001Z" fill="#F79E1B"/>
<path d="M16.339 16.065C16.339 15.628 16.625 15.269 17.093 15.269C17.54 15.269 17.842 15.612 17.842 16.065C17.842 16.517 17.54 16.86 17.093 16.86C16.625 16.86 16.339 16.501 16.339 16.065ZM18.351 16.065V14.822H17.811V15.124C17.639 14.9 17.379 14.76 17.026 14.76C16.329 14.76 15.783 15.306 15.783 16.065C15.783 16.824 16.329 17.37 17.026 17.37C17.379 17.37 17.639 17.229 17.811 17.005V17.307H18.351V16.065ZM36.611 16.065C36.611 15.628 36.897 15.269 37.365 15.269C37.812 15.269 38.113 15.612 38.113 16.065C38.113 16.517 37.812 16.86 37.365 16.86C36.897 16.86 36.611 16.501 36.611 16.065ZM38.623 16.065V13.824H38.083V15.124C37.911 14.9 37.651 14.76 37.298 14.76C36.601 14.76 36.054 15.306 36.054 16.065C36.054 16.824 36.601 17.37 37.298 17.37C37.651 17.37 37.911 17.229 38.083 17.005V17.307H38.623V16.065ZM25.058 15.243C25.406 15.243 25.63 15.462 25.687 15.846H24.398C24.456 15.487 24.673 15.243 25.058 15.243ZM25.069 14.76C24.341 14.76 23.831 15.29 23.831 16.065C23.831 16.855 24.362 17.37 25.105 17.37C25.48 17.37 25.822 17.276 26.124 17.022L25.859 16.621C25.651 16.787 25.386 16.881 25.136 16.881C24.788 16.881 24.471 16.72 24.393 16.272H26.238C26.244 16.205 26.249 16.137 26.249 16.065C26.244 15.29 25.765 14.76 25.069 14.76ZM31.594 16.065C31.594 15.628 31.88 15.269 32.348 15.269C32.795 15.269 33.096 15.612 33.096 16.065C33.096 16.517 32.795 16.86 32.348 16.86C31.88 16.86 31.594 16.501 31.594 16.065ZM33.606 16.065V14.822H33.065V15.124C32.893 14.9 32.634 14.76 32.28 14.76C31.584 14.76 31.037 15.306 31.037 16.065C31.037 16.824 31.584 17.37 32.28 17.37C32.634 17.37 32.893 17.229 33.065 17.005V17.307H33.606V16.065ZM28.542 16.065C28.542 16.819 29.067 17.37 29.868 17.37C30.242 17.37 30.492 17.286 30.762 17.073L30.502 16.636C30.299 16.782 30.086 16.86 29.852 16.86C29.42 16.855 29.103 16.543 29.103 16.065C29.103 15.586 29.42 15.274 29.852 15.269C30.086 15.269 30.299 15.347 30.502 15.493L30.762 15.056C30.492 14.843 30.242 14.76 29.868 14.76C29.067 14.76 28.542 15.311 28.542 16.065ZM35.509 14.76C35.197 14.76 34.994 14.905 34.854 15.124V14.822H34.318V17.307H34.859V15.914C34.859 15.503 35.036 15.274 35.389 15.274C35.499 15.274 35.613 15.29 35.727 15.337L35.894 14.827C35.774 14.78 35.618 14.76 35.509 14.76ZM21.024 15.02C20.764 14.848 20.405 14.76 20.01 14.76C19.381 14.76 18.975 15.061 18.975 15.555C18.975 15.96 19.277 16.21 19.833 16.288L20.088 16.325C20.385 16.366 20.524 16.444 20.524 16.585C20.524 16.777 20.327 16.886 19.958 16.886C19.584 16.886 19.313 16.767 19.131 16.626L18.877 17.047C19.173 17.265 19.547 17.37 19.952 17.37C20.67 17.37 21.086 17.032 21.086 16.559C21.086 16.122 20.759 15.893 20.218 15.815L19.963 15.778C19.729 15.747 19.542 15.701 19.542 15.534C19.542 15.352 19.719 15.243 20.015 15.243C20.332 15.243 20.639 15.363 20.79 15.456L21.024 15.02ZM27.996 14.76C27.684 14.76 27.481 14.905 27.341 15.124V14.822H26.806V17.307H27.346V15.914C27.346 15.503 27.523 15.274 27.876 15.274C27.986 15.274 28.1 15.29 28.214 15.337L28.381 14.827C28.261 14.78 28.105 14.76 27.996 14.76ZM23.384 14.822H22.501V14.068H21.954V14.822H21.45V15.316H21.954V16.45C21.954 17.026 22.178 17.37 22.817 17.37C23.052 17.37 23.322 17.297 23.493 17.177L23.337 16.714C23.176 16.808 22.999 16.855 22.859 16.855C22.589 16.855 22.501 16.688 22.501 16.439V15.316H23.384V14.822ZM15.305 17.307V15.747C15.305 15.16 14.931 14.765 14.327 14.76C14.01 14.754 13.683 14.853 13.453 15.202C13.282 14.926 13.012 14.76 12.632 14.76C12.367 14.76 12.107 14.838 11.904 15.129V14.822H11.364V17.307H11.909V15.93C11.909 15.498 12.148 15.269 12.518 15.269C12.877 15.269 13.058 15.503 13.058 15.924V17.307H13.605V15.93C13.605 15.498 13.854 15.269 14.213 15.269C14.582 15.269 14.759 15.503 14.759 15.924V17.307H15.305Z" fill="white"/>
</svg>
