<svg width="50" height="32" viewBox="0 0 50 32" fill="none" xmlns="http://www.w3.org/2000/svg">
<path d="M47 0H3C1.34315 0 0 1.34315 0 3V29C0 30.6569 1.34315 32 3 32H47C48.6569 32 50 30.6569 50 29V3C50 1.34315 48.6569 0 47 0Z" fill="#5E6366"/>
<path d="M12.943 10.193C12.498 10.722 11.785 11.139 11.073 11.079C10.984 10.364 11.333 9.60502 11.741 9.13602C12.186 8.59202 12.966 8.20503 13.597 8.17603C13.671 8.92003 13.381 9.65002 12.943 10.193ZM13.589 11.22C12.557 11.161 11.674 11.809 11.184 11.809C10.687 11.809 9.937 11.25 9.121 11.265C8.059 11.28 7.072 11.883 6.53 12.843C5.417 14.764 6.24099 17.608 7.31699 19.171C7.84399 19.946 8.475 20.794 9.306 20.765C10.093 20.735 10.405 20.251 11.355 20.251C12.312 20.251 12.587 20.765 13.418 20.75C14.279 20.735 14.821 19.975 15.348 19.201C15.95 18.323 16.194 17.467 16.209 17.422C16.194 17.407 14.547 16.774 14.532 14.868C14.517 13.275 15.831 12.516 15.89 12.471C15.148 11.369 13.99 11.25 13.589 11.22ZM19.55 9.06104V20.668H21.346V16.7H23.832C26.104 16.7 27.7 15.136 27.7 12.873C27.7 10.61 26.133 9.06104 23.892 9.06104H19.55ZM21.346 10.58H23.417C24.976 10.58 25.866 11.414 25.866 12.881C25.866 14.347 24.976 15.188 23.409 15.188H21.346V10.58ZM30.981 20.757C32.109 20.757 33.155 20.184 33.63 19.276H33.668V20.668H35.33V14.891C35.33 13.216 33.994 12.136 31.938 12.136C30.03 12.136 28.62 13.231 28.568 14.734H30.186C30.32 14.02 30.981 13.551 31.886 13.551C32.985 13.551 33.601 14.064 33.601 15.01V15.65L31.359 15.784C29.273 15.911 28.145 16.767 28.145 18.256C28.145 19.76 29.31 20.757 30.981 20.757ZM31.463 19.38C30.505 19.38 29.897 18.918 29.897 18.211C29.897 17.481 30.483 17.057 31.604 16.99L33.601 16.864V17.519C33.601 18.606 32.68 19.38 31.463 19.38ZM37.55 23.824C39.301 23.824 40.125 23.154 40.845 21.122L44 12.248H42.174L40.059 19.104H40.021L37.906 12.248H36.028L39.071 20.698L38.908 21.211C38.633 22.082 38.188 22.417 37.394 22.417C37.253 22.417 36.978 22.402 36.867 22.388V23.78C36.971 23.809 37.416 23.824 37.55 23.824Z" fill="white"/>
</svg>
