<svg width="50" height="32" viewBox="0 0 50 32" fill="none" xmlns="http://www.w3.org/2000/svg">
<path d="M47 0H3C1.34315 0 0 1.34315 0 3V29C0 30.6569 1.34315 32 3 32H47C48.6569 32 50 30.6569 50 29V3C50 1.34315 48.6569 0 47 0Z" fill="#082069"/>
<path d="M14.874 20.8999H12.801C12.659 20.8999 12.539 21.0029 12.517 21.1429L11.678 26.4579C11.662 26.5629 11.743 26.6569 11.849 26.6569H12.839C12.981 26.6569 13.101 26.5539 13.123 26.4139L13.35 24.9809C13.371 24.8399 13.492 24.7369 13.634 24.7369H14.29C15.655 24.7369 16.443 24.0769 16.649 22.7669C16.742 22.1939 16.653 21.7439 16.385 21.4289C16.09 21.0829 15.568 20.8999 14.874 20.8999ZM15.113 22.8409C15 23.5849 14.432 23.5849 13.882 23.5849H13.569L13.789 22.1959C13.802 22.1119 13.874 22.0499 13.959 22.0499H14.103C14.477 22.0499 14.83 22.0499 15.013 22.2639C15.121 22.3909 15.155 22.5799 15.113 22.8409Z" fill="white"/>
<path d="M21.07 22.8169H20.077C19.993 22.8169 19.92 22.8779 19.907 22.9619L19.863 23.2399L19.793 23.1389C19.578 22.8279 19.099 22.7229 18.621 22.7229C17.524 22.7229 16.587 23.5539 16.405 24.7189C16.31 25.3009 16.445 25.8559 16.775 26.2439C17.077 26.5999 17.51 26.7489 18.025 26.7489C18.909 26.7489 19.399 26.1809 19.399 26.1809L19.354 26.4559C19.338 26.5619 19.419 26.6559 19.525 26.6559H20.419C20.561 26.6559 20.681 26.5529 20.703 26.4129L21.24 23.0159C21.257 22.9109 21.176 22.8169 21.07 22.8169ZM19.686 24.7479C19.59 25.3149 19.14 25.6959 18.566 25.6959C18.278 25.6959 18.048 25.6039 17.9 25.4279C17.753 25.2539 17.698 25.0069 17.744 24.7309C17.834 24.1689 18.291 23.7759 18.856 23.7759C19.138 23.7759 19.367 23.8689 19.518 24.0459C19.67 24.2249 19.73 24.4739 19.686 24.7479Z" fill="white"/>
<path d="M26.356 22.8169H25.358C25.263 22.8169 25.174 22.8639 25.12 22.9429L23.744 24.9689L23.161 23.0219C23.125 22.8999 23.012 22.8169 22.885 22.8169H21.905C21.786 22.8169 21.703 22.9329 21.741 23.0449L22.839 26.2689L21.806 27.7269C21.725 27.8419 21.807 27.9999 21.947 27.9999H22.944C23.038 27.9999 23.127 27.9539 23.18 27.8759L26.498 23.0879C26.577 22.9729 26.496 22.8169 26.356 22.8169Z" fill="white"/>
<path d="M29.658 20.8989H27.585C27.443 20.8989 27.323 21.0019 27.301 21.1419L26.462 26.4569C26.446 26.5619 26.527 26.657 26.633 26.657H27.696C27.795 26.657 27.88 26.5849 27.895 26.4859L28.133 24.9799C28.155 24.8399 28.276 24.7369 28.417 24.7369H29.073C30.439 24.7369 31.227 24.0759 31.433 22.7669C31.526 22.1939 31.436 21.7439 31.168 21.4289C30.874 21.0819 30.352 20.8989 29.658 20.8989ZM29.897 22.8409C29.784 23.5839 29.216 23.584 28.666 23.584H28.354L28.573 22.1949C28.586 22.1109 28.658 22.0499 28.744 22.0499H28.887C29.261 22.0499 29.614 22.0499 29.797 22.2629C29.906 22.3899 29.939 22.5789 29.897 22.8409Z" fill="white"/>
<path d="M35.853 22.8169H34.861C34.776 22.8169 34.704 22.8779 34.691 22.9619L34.647 23.2399L34.577 23.1389C34.363 22.8279 33.884 22.7229 33.406 22.7229C32.309 22.7229 31.372 23.5539 31.19 24.7189C31.095 25.3009 31.229 25.8559 31.559 26.2439C31.862 26.5999 32.294 26.7489 32.809 26.7489C33.693 26.7489 34.183 26.1809 34.183 26.1809L34.139 26.4559C34.122 26.5619 34.203 26.6559 34.31 26.6559H35.204C35.345 26.6559 35.466 26.5529 35.488 26.4129L36.025 23.0159C36.041 22.9109 35.96 22.8169 35.853 22.8169ZM34.47 24.7479C34.375 25.3149 33.924 25.6959 33.35 25.6959C33.062 25.6959 32.831 25.6039 32.684 25.4279C32.537 25.2539 32.482 25.0069 32.528 24.7309C32.618 24.1689 33.075 23.7759 33.64 23.7759C33.922 23.7759 34.151 23.8689 34.302 24.0459C34.454 24.2249 34.514 24.4739 34.47 24.7479Z" fill="white"/>
<path d="M37.024 21.045L36.173 26.4569C36.156 26.5619 36.237 26.657 36.343 26.657H37.198C37.341 26.657 37.461 26.5539 37.483 26.4129L38.322 21.0989C38.339 20.9939 38.257 20.8989 38.152 20.8989H37.194C37.109 20.8989 37.037 20.961 37.024 21.045Z" fill="white"/>
<path opacity="0.68" d="M30.116 7.424C30.28 6.375 30.115 5.66201 29.548 5.01601C28.924 4.30501 27.796 4 26.353 4H22.165C21.87 4 21.619 4.215 21.573 4.506L19.829 15.565C19.794 15.784 19.963 15.981 20.184 15.981H22.769L22.591 17.112C22.561 17.303 22.708 17.476 22.902 17.476H25.081C25.339 17.476 25.559 17.288 25.599 17.033L25.62 16.922L26.031 14.319L26.057 14.175C26.098 13.92 26.317 13.732 26.575 13.732H26.901C29.013 13.732 30.666 12.875 31.149 10.394C31.351 9.357 31.246 8.492 30.713 7.884C30.551 7.7 30.35 7.548 30.116 7.424Z" fill="white"/>
<path opacity="0.7" d="M30.116 7.424C30.28 6.375 30.115 5.66201 29.548 5.01601C28.924 4.30501 27.796 4 26.353 4H22.165C21.87 4 21.619 4.215 21.573 4.506L19.829 15.565C19.794 15.784 19.963 15.981 20.184 15.981H22.769L23.419 11.862L23.399 11.991C23.445 11.7 23.694 11.485 23.989 11.485H25.218C27.631 11.485 29.521 10.505 30.073 7.66901C30.09 7.58501 30.104 7.504 30.116 7.424Z" fill="white"/>
<path d="M24.117 7.438C24.144 7.263 24.257 7.11901 24.408 7.04601C24.477 7.01401 24.554 6.995 24.635 6.995H27.918C28.307 6.995 28.669 7.02101 29.001 7.07401C29.096 7.08901 29.188 7.107 29.278 7.127C29.367 7.147 29.454 7.16899 29.538 7.19299C29.58 7.20599 29.622 7.21899 29.662 7.23199C29.825 7.28599 29.977 7.35 30.116 7.424C30.281 6.376 30.115 5.66201 29.548 5.01601C28.924 4.30501 27.796 4 26.353 4H22.165C21.87 4 21.619 4.215 21.573 4.506L19.829 15.565C19.794 15.784 19.963 15.981 20.184 15.981H22.769L23.419 11.862L24.117 7.438Z" fill="white"/>
</svg>
